<mxfile host="app.diagrams.net" modified="2023-06-18T03:25:20.270Z" agent="Mozilla/5.0 (Windows NT 10.0; Win64; x64) AppleWebKit/537.36 (KHTML, like Gecko) Chrome/114.0.0.0 Safari/537.36" etag="wM8km_zgSyjxbniHAWhd" version="21.3.8" type="onedrive">
  <diagram name="Page-1" id="mf9uTeo_KXJyl0Xefn4H">
    <mxGraphModel grid="0" page="0" gridSize="10" guides="1" tooltips="1" connect="1" arrows="1" fold="1" pageScale="1" pageWidth="850" pageHeight="1100" math="0" shadow="0">
      <root>
        <mxCell id="0" />
        <mxCell id="1" parent="0" />
        <mxCell id="mrYzFHmPEr3j6c3FVl9G-103" value="USUARIO" style="whiteSpace=wrap;html=1;align=center;rounded=0;fillColor=#d5e8d4;strokeColor=#82b366;" vertex="1" parent="1">
          <mxGeometry x="1231" y="755" width="80" height="30" as="geometry" />
        </mxCell>
        <mxCell id="mrYzFHmPEr3j6c3FVl9G-104" style="rounded=0;orthogonalLoop=1;jettySize=auto;html=1;entryX=0;entryY=0.75;entryDx=0;entryDy=0;endArrow=none;endFill=0;" edge="1" parent="1" source="mrYzFHmPEr3j6c3FVl9G-105" target="mrYzFHmPEr3j6c3FVl9G-103">
          <mxGeometry relative="1" as="geometry" />
        </mxCell>
        <mxCell id="mrYzFHmPEr3j6c3FVl9G-105" value="CI" style="ellipse;whiteSpace=wrap;html=1;align=center;fontStyle=4;rounded=0;fillColor=#d5e8d4;strokeColor=#82b366;" vertex="1" parent="1">
          <mxGeometry x="1041" y="765" width="46" height="24" as="geometry" />
        </mxCell>
        <mxCell id="mrYzFHmPEr3j6c3FVl9G-106" value="ADMIN" style="whiteSpace=wrap;html=1;align=center;rounded=0;fillColor=#d5e8d4;strokeColor=#82b366;" vertex="1" parent="1">
          <mxGeometry x="1231" y="885" width="80" height="30" as="geometry" />
        </mxCell>
        <mxCell id="mrYzFHmPEr3j6c3FVl9G-107" style="edgeStyle=orthogonalEdgeStyle;rounded=0;orthogonalLoop=1;jettySize=auto;html=1;endArrow=none;endFill=0;" edge="1" parent="1" source="mrYzFHmPEr3j6c3FVl9G-111" target="mrYzFHmPEr3j6c3FVl9G-149">
          <mxGeometry relative="1" as="geometry">
            <Array as="points" />
          </mxGeometry>
        </mxCell>
        <mxCell id="mrYzFHmPEr3j6c3FVl9G-108" value="&lt;font size=&quot;3&quot;&gt;N&lt;/font&gt;" style="edgeLabel;html=1;align=center;verticalAlign=middle;resizable=0;points=[];rounded=0;" connectable="0" vertex="1" parent="mrYzFHmPEr3j6c3FVl9G-107">
          <mxGeometry x="-0.7091" y="3" relative="1" as="geometry">
            <mxPoint x="-2" y="1" as="offset" />
          </mxGeometry>
        </mxCell>
        <mxCell id="mrYzFHmPEr3j6c3FVl9G-109" style="edgeStyle=orthogonalEdgeStyle;rounded=0;orthogonalLoop=1;jettySize=auto;html=1;endArrow=none;endFill=0;" edge="1" parent="1" source="mrYzFHmPEr3j6c3FVl9G-111" target="mrYzFHmPEr3j6c3FVl9G-203">
          <mxGeometry relative="1" as="geometry">
            <mxPoint x="1447" y="1003" as="targetPoint" />
            <Array as="points">
              <mxPoint x="1440" y="1090" />
            </Array>
          </mxGeometry>
        </mxCell>
        <mxCell id="mrYzFHmPEr3j6c3FVl9G-110" value="&lt;font size=&quot;3&quot;&gt;N&lt;/font&gt;" style="edgeLabel;html=1;align=center;verticalAlign=middle;resizable=0;points=[];" vertex="1" connectable="0" parent="mrYzFHmPEr3j6c3FVl9G-109">
          <mxGeometry x="-0.694" y="1" relative="1" as="geometry">
            <mxPoint x="-1" y="-15" as="offset" />
          </mxGeometry>
        </mxCell>
        <mxCell id="mrYzFHmPEr3j6c3FVl9G-111" value="SOLIDARIO" style="whiteSpace=wrap;html=1;align=center;rounded=0;fillColor=#d5e8d4;strokeColor=#82b366;" vertex="1" parent="1">
          <mxGeometry x="1400" y="885" width="80" height="30" as="geometry" />
        </mxCell>
        <mxCell id="mrYzFHmPEr3j6c3FVl9G-112" style="edgeStyle=orthogonalEdgeStyle;rounded=0;orthogonalLoop=1;jettySize=auto;html=1;exitX=0;exitY=0.5;exitDx=0;exitDy=0;entryX=0.5;entryY=0;entryDx=0;entryDy=0;endArrow=none;endFill=0;" edge="1" parent="1" source="mrYzFHmPEr3j6c3FVl9G-114" target="mrYzFHmPEr3j6c3FVl9G-146">
          <mxGeometry relative="1" as="geometry" />
        </mxCell>
        <mxCell id="mrYzFHmPEr3j6c3FVl9G-113" value="&lt;font size=&quot;3&quot;&gt;1&lt;/font&gt;" style="edgeLabel;html=1;align=center;verticalAlign=middle;resizable=0;points=[];rounded=0;" connectable="0" vertex="1" parent="mrYzFHmPEr3j6c3FVl9G-112">
          <mxGeometry x="-0.5317" y="3" relative="1" as="geometry">
            <mxPoint x="18" y="-3" as="offset" />
          </mxGeometry>
        </mxCell>
        <mxCell id="mrYzFHmPEr3j6c3FVl9G-114" value="NECESITADO" style="whiteSpace=wrap;html=1;align=center;rounded=0;" vertex="1" parent="1">
          <mxGeometry x="1071" y="885" width="80" height="30" as="geometry" />
        </mxCell>
        <mxCell id="mrYzFHmPEr3j6c3FVl9G-115" style="edgeStyle=none;rounded=0;orthogonalLoop=1;jettySize=auto;html=1;exitX=1;exitY=0.5;exitDx=0;exitDy=0;entryX=0;entryY=0.5;entryDx=0;entryDy=0;endArrow=none;endFill=0;" edge="1" parent="1" source="mrYzFHmPEr3j6c3FVl9G-116" target="mrYzFHmPEr3j6c3FVl9G-103">
          <mxGeometry relative="1" as="geometry" />
        </mxCell>
        <mxCell id="mrYzFHmPEr3j6c3FVl9G-116" value="NOMBRE" style="ellipse;whiteSpace=wrap;html=1;align=center;rounded=0;fillColor=#d5e8d4;strokeColor=#82b366;" vertex="1" parent="1">
          <mxGeometry x="1021" y="725" width="66" height="27" as="geometry" />
        </mxCell>
        <mxCell id="mrYzFHmPEr3j6c3FVl9G-117" style="edgeStyle=none;rounded=0;orthogonalLoop=1;jettySize=auto;html=1;exitX=1;exitY=1;exitDx=0;exitDy=0;entryX=0;entryY=0;entryDx=0;entryDy=0;endArrow=none;endFill=0;" edge="1" parent="1" source="mrYzFHmPEr3j6c3FVl9G-118" target="mrYzFHmPEr3j6c3FVl9G-103">
          <mxGeometry relative="1" as="geometry" />
        </mxCell>
        <mxCell id="mrYzFHmPEr3j6c3FVl9G-118" value="APELLIDO" style="ellipse;whiteSpace=wrap;html=1;align=center;rounded=0;" vertex="1" parent="1">
          <mxGeometry x="1055" y="691" width="67" height="28" as="geometry" />
        </mxCell>
        <mxCell id="mrYzFHmPEr3j6c3FVl9G-119" style="edgeStyle=none;rounded=0;orthogonalLoop=1;jettySize=auto;html=1;endArrow=none;endFill=0;" edge="1" parent="1" source="mrYzFHmPEr3j6c3FVl9G-205" target="mrYzFHmPEr3j6c3FVl9G-103">
          <mxGeometry relative="1" as="geometry">
            <mxPoint x="1139" y="687" as="sourcePoint" />
          </mxGeometry>
        </mxCell>
        <mxCell id="mrYzFHmPEr3j6c3FVl9G-120" style="edgeStyle=none;rounded=0;orthogonalLoop=1;jettySize=auto;html=1;endArrow=none;endFill=0;" edge="1" parent="1" source="mrYzFHmPEr3j6c3FVl9G-121" target="mrYzFHmPEr3j6c3FVl9G-103">
          <mxGeometry relative="1" as="geometry">
            <mxPoint x="1311" y="755" as="targetPoint" />
          </mxGeometry>
        </mxCell>
        <mxCell id="mrYzFHmPEr3j6c3FVl9G-121" value="FOTO CI" style="ellipse;whiteSpace=wrap;html=1;align=center;rounded=0;" vertex="1" parent="1">
          <mxGeometry x="1321" y="627" width="70" height="30" as="geometry" />
        </mxCell>
        <mxCell id="mrYzFHmPEr3j6c3FVl9G-122" style="edgeStyle=none;rounded=0;orthogonalLoop=1;jettySize=auto;html=1;exitX=0.5;exitY=1;exitDx=0;exitDy=0;endArrow=none;endFill=0;" edge="1" parent="1" source="mrYzFHmPEr3j6c3FVl9G-123" target="mrYzFHmPEr3j6c3FVl9G-103">
          <mxGeometry relative="1" as="geometry" />
        </mxCell>
        <mxCell id="mrYzFHmPEr3j6c3FVl9G-123" value="TEL" style="ellipse;shape=doubleEllipse;margin=3;whiteSpace=wrap;html=1;align=center;rounded=0;" vertex="1" parent="1">
          <mxGeometry x="1269" y="625" width="49" height="30" as="geometry" />
        </mxCell>
        <mxCell id="mrYzFHmPEr3j6c3FVl9G-124" style="edgeStyle=none;rounded=0;orthogonalLoop=1;jettySize=auto;html=1;endArrow=none;endFill=0;" edge="1" parent="1" source="xj2whcT8riz2rXCsA1iZ-9" target="mrYzFHmPEr3j6c3FVl9G-103">
          <mxGeometry relative="1" as="geometry">
            <mxPoint x="1227.1276463629963" y="673.59397145909" as="sourcePoint" />
          </mxGeometry>
        </mxCell>
        <mxCell id="mrYzFHmPEr3j6c3FVl9G-127" value="" style="endArrow=block;endSize=16;endFill=0;html=1;rounded=0;edgeStyle=orthogonalEdgeStyle;" edge="1" parent="1" source="mrYzFHmPEr3j6c3FVl9G-114" target="mrYzFHmPEr3j6c3FVl9G-103">
          <mxGeometry y="20" width="160" relative="1" as="geometry">
            <mxPoint x="1361" y="965" as="sourcePoint" />
            <mxPoint x="1521" y="965" as="targetPoint" />
            <mxPoint as="offset" />
            <Array as="points">
              <mxPoint x="1111" y="835" />
              <mxPoint x="1271" y="835" />
            </Array>
          </mxGeometry>
        </mxCell>
        <mxCell id="mrYzFHmPEr3j6c3FVl9G-128" value="" style="endArrow=block;endSize=16;endFill=0;html=1;rounded=0;edgeStyle=orthogonalEdgeStyle;" edge="1" parent="1" source="mrYzFHmPEr3j6c3FVl9G-111" target="mrYzFHmPEr3j6c3FVl9G-103">
          <mxGeometry y="20" width="160" relative="1" as="geometry">
            <mxPoint x="1121" y="895" as="sourcePoint" />
            <mxPoint x="1271" y="785" as="targetPoint" />
            <mxPoint as="offset" />
            <Array as="points">
              <mxPoint x="1440" y="835" />
              <mxPoint x="1271" y="835" />
            </Array>
          </mxGeometry>
        </mxCell>
        <mxCell id="mrYzFHmPEr3j6c3FVl9G-129" value="" style="endArrow=block;endSize=16;endFill=0;html=1;rounded=0;edgeStyle=orthogonalEdgeStyle;" edge="1" parent="1" source="mrYzFHmPEr3j6c3FVl9G-106" target="mrYzFHmPEr3j6c3FVl9G-103">
          <mxGeometry y="20" width="160" relative="1" as="geometry">
            <mxPoint x="1131" y="905" as="sourcePoint" />
            <mxPoint x="1291" y="805" as="targetPoint" />
            <mxPoint as="offset" />
            <Array as="points">
              <mxPoint x="1271" y="813" />
              <mxPoint x="1271" y="813" />
            </Array>
          </mxGeometry>
        </mxCell>
        <mxCell id="mrYzFHmPEr3j6c3FVl9G-130" value="HABILIDAD" style="whiteSpace=wrap;html=1;align=center;rounded=0;fillColor=#fff2cc;strokeColor=#d6b656;" vertex="1" parent="1">
          <mxGeometry x="1589" y="1035" width="100" height="30" as="geometry" />
        </mxCell>
        <mxCell id="mrYzFHmPEr3j6c3FVl9G-133" style="edgeStyle=none;rounded=0;orthogonalLoop=1;jettySize=auto;html=1;endArrow=none;endFill=0;" edge="1" parent="1" source="mrYzFHmPEr3j6c3FVl9G-134" target="mrYzFHmPEr3j6c3FVl9G-149">
          <mxGeometry relative="1" as="geometry" />
        </mxCell>
        <mxCell id="mrYzFHmPEr3j6c3FVl9G-134" value="FECHA CREACION" style="ellipse;whiteSpace=wrap;html=1;align=center;rounded=0;fillColor=#f5f5f5;fontColor=#333333;strokeColor=#666666;" vertex="1" parent="1">
          <mxGeometry x="1692.5" y="870" width="130" height="40" as="geometry" />
        </mxCell>
        <mxCell id="mrYzFHmPEr3j6c3FVl9G-135" value="NECESIDAD" style="whiteSpace=wrap;html=1;align=center;rounded=0;" vertex="1" parent="1">
          <mxGeometry x="891" y="1075" width="100" height="30" as="geometry" />
        </mxCell>
        <mxCell id="mrYzFHmPEr3j6c3FVl9G-136" style="edgeStyle=none;rounded=0;orthogonalLoop=1;jettySize=auto;html=1;endArrow=none;endFill=0;" edge="1" parent="1" source="mrYzFHmPEr3j6c3FVl9G-137" target="mrYzFHmPEr3j6c3FVl9G-135">
          <mxGeometry relative="1" as="geometry">
            <mxPoint x="931" y="1105" as="targetPoint" />
          </mxGeometry>
        </mxCell>
        <mxCell id="mrYzFHmPEr3j6c3FVl9G-137" value="ID" style="ellipse;whiteSpace=wrap;html=1;align=center;fontStyle=4;rounded=0;" vertex="1" parent="1">
          <mxGeometry x="1010.5" y="1119" width="39" height="30" as="geometry" />
        </mxCell>
        <mxCell id="mrYzFHmPEr3j6c3FVl9G-138" style="edgeStyle=none;rounded=0;orthogonalLoop=1;jettySize=auto;html=1;endArrow=none;endFill=0;" edge="1" parent="1" source="mrYzFHmPEr3j6c3FVl9G-139" target="mrYzFHmPEr3j6c3FVl9G-135">
          <mxGeometry relative="1" as="geometry" />
        </mxCell>
        <mxCell id="mrYzFHmPEr3j6c3FVl9G-139" value="FECHA CREACION" style="ellipse;whiteSpace=wrap;html=1;align=center;rounded=0;" vertex="1" parent="1">
          <mxGeometry x="790" y="1020" width="129" height="35" as="geometry" />
        </mxCell>
        <mxCell id="mrYzFHmPEr3j6c3FVl9G-140" style="edgeStyle=none;rounded=0;orthogonalLoop=1;jettySize=auto;html=1;endArrow=none;endFill=0;" edge="1" parent="1" source="mrYzFHmPEr3j6c3FVl9G-141" target="mrYzFHmPEr3j6c3FVl9G-135">
          <mxGeometry relative="1" as="geometry" />
        </mxCell>
        <mxCell id="mrYzFHmPEr3j6c3FVl9G-141" value="ESTADO" style="ellipse;whiteSpace=wrap;html=1;align=center;rounded=0;fillColor=#ffe6cc;strokeColor=#d79b00;" vertex="1" parent="1">
          <mxGeometry x="951" y="1149" width="70" height="30" as="geometry" />
        </mxCell>
        <mxCell id="mrYzFHmPEr3j6c3FVl9G-142" style="edgeStyle=none;rounded=0;orthogonalLoop=1;jettySize=auto;html=1;endArrow=none;endFill=0;" edge="1" parent="1" source="mrYzFHmPEr3j6c3FVl9G-143" target="mrYzFHmPEr3j6c3FVl9G-135">
          <mxGeometry relative="1" as="geometry" />
        </mxCell>
        <mxCell id="mrYzFHmPEr3j6c3FVl9G-143" value="DESCRIPCIÓN" style="ellipse;whiteSpace=wrap;html=1;align=center;rounded=0;" vertex="1" parent="1">
          <mxGeometry x="961" y="1035" width="97" height="31" as="geometry" />
        </mxCell>
        <mxCell id="mrYzFHmPEr3j6c3FVl9G-144" style="edgeStyle=orthogonalEdgeStyle;rounded=0;orthogonalLoop=1;jettySize=auto;html=1;exitX=0.5;exitY=1;exitDx=0;exitDy=0;entryX=0.5;entryY=0;entryDx=0;entryDy=0;endArrow=none;endFill=0;" edge="1" parent="1" source="mrYzFHmPEr3j6c3FVl9G-146" target="mrYzFHmPEr3j6c3FVl9G-135">
          <mxGeometry relative="1" as="geometry" />
        </mxCell>
        <mxCell id="mrYzFHmPEr3j6c3FVl9G-145" value="&lt;font style=&quot;font-size: 14px;&quot;&gt;N&lt;/font&gt;" style="edgeLabel;html=1;align=center;verticalAlign=middle;resizable=0;points=[];rounded=0;" connectable="0" vertex="1" parent="mrYzFHmPEr3j6c3FVl9G-144">
          <mxGeometry x="0.6123" y="-1" relative="1" as="geometry">
            <mxPoint x="1" y="-7" as="offset" />
          </mxGeometry>
        </mxCell>
        <mxCell id="mrYzFHmPEr3j6c3FVl9G-146" value="TIENE" style="shape=rhombus;perimeter=rhombusPerimeter;whiteSpace=wrap;html=1;align=center;rounded=0;" vertex="1" parent="1">
          <mxGeometry x="896" y="935" width="90" height="50" as="geometry" />
        </mxCell>
        <mxCell id="mrYzFHmPEr3j6c3FVl9G-149" value="TIENE" style="shape=rhombus;perimeter=rhombusPerimeter;whiteSpace=wrap;html=1;align=center;rounded=0;" vertex="1" parent="1">
          <mxGeometry x="1594" y="875" width="90" height="50" as="geometry" />
        </mxCell>
        <mxCell id="mrYzFHmPEr3j6c3FVl9G-150" value="(T,S)" style="text;html=1;align=center;verticalAlign=middle;resizable=0;points=[];autosize=1;strokeColor=none;fillColor=none;rounded=0;" vertex="1" parent="1">
          <mxGeometry x="1269" y="785" width="50" height="30" as="geometry" />
        </mxCell>
        <mxCell id="mrYzFHmPEr3j6c3FVl9G-151" style="rounded=0;orthogonalLoop=1;jettySize=auto;html=1;endArrow=none;endFill=0;" edge="1" parent="1" source="mrYzFHmPEr3j6c3FVl9G-152" target="mrYzFHmPEr3j6c3FVl9G-135">
          <mxGeometry relative="1" as="geometry">
            <mxPoint x="848.7006578947369" y="1189.0040789473683" as="targetPoint" />
          </mxGeometry>
        </mxCell>
        <mxCell id="mrYzFHmPEr3j6c3FVl9G-152" value="FECHA_RESUELTO" style="ellipse;whiteSpace=wrap;html=1;align=center;rounded=0;fillColor=#ffe6cc;strokeColor=#d79b00;" vertex="1" parent="1">
          <mxGeometry x="801" y="1191" width="130" height="30" as="geometry" />
        </mxCell>
        <mxCell id="mrYzFHmPEr3j6c3FVl9G-153" value="&lt;font size=&quot;3&quot;&gt;N&lt;/font&gt;" style="edgeStyle=orthogonalEdgeStyle;rounded=0;orthogonalLoop=1;jettySize=auto;html=1;endArrow=none;endFill=0;" edge="1" parent="1" source="mrYzFHmPEr3j6c3FVl9G-193" target="mrYzFHmPEr3j6c3FVl9G-130">
          <mxGeometry x="0.8799" relative="1" as="geometry">
            <mxPoint as="offset" />
            <mxPoint x="1550.5" y="1209.9999999999998" as="sourcePoint" />
            <mxPoint x="1648" y="1048" as="targetPoint" />
            <Array as="points">
              <mxPoint x="1639" y="1210" />
            </Array>
          </mxGeometry>
        </mxCell>
        <mxCell id="mrYzFHmPEr3j6c3FVl9G-154" style="edgeStyle=orthogonalEdgeStyle;rounded=0;orthogonalLoop=1;jettySize=auto;html=1;endArrow=none;endFill=0;" edge="1" parent="1" source="mrYzFHmPEr3j6c3FVl9G-193" target="mrYzFHmPEr3j6c3FVl9G-135">
          <mxGeometry relative="1" as="geometry">
            <mxPoint x="1111.5000000000002" y="1209.9999999999998" as="sourcePoint" />
          </mxGeometry>
        </mxCell>
        <mxCell id="mrYzFHmPEr3j6c3FVl9G-155" value="&lt;font size=&quot;3&quot;&gt;N&lt;/font&gt;" style="edgeLabel;html=1;align=center;verticalAlign=middle;resizable=0;points=[];rounded=0;" connectable="0" vertex="1" parent="mrYzFHmPEr3j6c3FVl9G-154">
          <mxGeometry x="0.8556" y="2" relative="1" as="geometry">
            <mxPoint as="offset" />
          </mxGeometry>
        </mxCell>
        <mxCell id="mrYzFHmPEr3j6c3FVl9G-156" style="rounded=0;orthogonalLoop=1;jettySize=auto;html=1;endArrow=none;endFill=0;" edge="1" parent="1" source="mrYzFHmPEr3j6c3FVl9G-203" target="mrYzFHmPEr3j6c3FVl9G-161">
          <mxGeometry relative="1" as="geometry">
            <mxPoint x="1324.5" y="1065" as="sourcePoint" />
          </mxGeometry>
        </mxCell>
        <mxCell id="mrYzFHmPEr3j6c3FVl9G-157" style="rounded=0;orthogonalLoop=1;jettySize=auto;html=1;endArrow=none;endFill=0;" edge="1" parent="1" source="mrYzFHmPEr3j6c3FVl9G-203" target="mrYzFHmPEr3j6c3FVl9G-160">
          <mxGeometry relative="1" as="geometry">
            <mxPoint x="1269.5" y="1065" as="sourcePoint" />
          </mxGeometry>
        </mxCell>
        <mxCell id="mrYzFHmPEr3j6c3FVl9G-158" style="edgeStyle=orthogonalEdgeStyle;rounded=0;orthogonalLoop=1;jettySize=auto;html=1;endArrow=none;endFill=0;" edge="1" parent="1" source="mrYzFHmPEr3j6c3FVl9G-135" target="mrYzFHmPEr3j6c3FVl9G-203">
          <mxGeometry relative="1" as="geometry">
            <mxPoint x="1111" y="1055" as="sourcePoint" />
            <mxPoint x="1242" y="1090.0285714285715" as="targetPoint" />
            <Array as="points" />
          </mxGeometry>
        </mxCell>
        <mxCell id="mrYzFHmPEr3j6c3FVl9G-159" value="&lt;font style=&quot;font-size: 14px;&quot;&gt;N&lt;/font&gt;" style="edgeLabel;html=1;align=center;verticalAlign=middle;resizable=0;points=[];" vertex="1" connectable="0" parent="mrYzFHmPEr3j6c3FVl9G-158">
          <mxGeometry x="0.5824" y="1" relative="1" as="geometry">
            <mxPoint x="-181" y="1" as="offset" />
          </mxGeometry>
        </mxCell>
        <mxCell id="mrYzFHmPEr3j6c3FVl9G-160" value="ESTADO" style="ellipse;whiteSpace=wrap;html=1;align=center;rounded=0;fillColor=#f5f5f5;fontColor=#333333;strokeColor=#666666;" vertex="1" parent="1">
          <mxGeometry x="1176" y="1015" width="70" height="30" as="geometry" />
        </mxCell>
        <mxCell id="mrYzFHmPEr3j6c3FVl9G-161" value="FECHA CREACION" style="ellipse;whiteSpace=wrap;html=1;align=center;rounded=0;fillColor=#f5f5f5;fontColor=#333333;strokeColor=#666666;" vertex="1" parent="1">
          <mxGeometry x="1276" y="1009" width="129" height="30" as="geometry" />
        </mxCell>
        <mxCell id="mrYzFHmPEr3j6c3FVl9G-162" value="NOTIFICACION" style="shape=ext;margin=3;double=1;whiteSpace=wrap;html=1;align=center;fillColor=#dae8fc;strokeColor=#6c8ebf;" vertex="1" parent="1">
          <mxGeometry x="1560" y="755" width="110" height="30" as="geometry" />
        </mxCell>
        <mxCell id="mrYzFHmPEr3j6c3FVl9G-163" style="orthogonalLoop=1;jettySize=auto;html=1;exitX=0;exitY=1;exitDx=0;exitDy=0;rounded=0;entryX=0.5;entryY=0;entryDx=0;entryDy=0;endArrow=none;endFill=0;fillColor=#dae8fc;strokeColor=#6c8ebf;" edge="1" parent="1" source="mrYzFHmPEr3j6c3FVl9G-164" target="mrYzFHmPEr3j6c3FVl9G-162">
          <mxGeometry relative="1" as="geometry">
            <mxPoint x="1624" y="743" as="targetPoint" />
          </mxGeometry>
        </mxCell>
        <mxCell id="mrYzFHmPEr3j6c3FVl9G-164" value="ID" style="ellipse;whiteSpace=wrap;html=1;align=center;rounded=0;fontStyle=4;fillColor=#dae8fc;strokeColor=#6c8ebf;" vertex="1" parent="1">
          <mxGeometry x="1654" y="683" width="34" height="30" as="geometry" />
        </mxCell>
        <mxCell id="mrYzFHmPEr3j6c3FVl9G-165" style="orthogonalLoop=1;jettySize=auto;html=1;rounded=0;endArrow=none;endFill=0;fillColor=#dae8fc;strokeColor=#6c8ebf;" edge="1" parent="1" source="mrYzFHmPEr3j6c3FVl9G-166" target="mrYzFHmPEr3j6c3FVl9G-162">
          <mxGeometry relative="1" as="geometry" />
        </mxCell>
        <mxCell id="mrYzFHmPEr3j6c3FVl9G-166" value="MENSAJE" style="ellipse;whiteSpace=wrap;html=1;align=center;rounded=0;fillColor=#dae8fc;strokeColor=#6c8ebf;" vertex="1" parent="1">
          <mxGeometry x="1692.5" y="702" width="70" height="30" as="geometry" />
        </mxCell>
        <mxCell id="mrYzFHmPEr3j6c3FVl9G-167" style="orthogonalLoop=1;jettySize=auto;html=1;rounded=0;endArrow=none;endFill=0;fillColor=#dae8fc;strokeColor=#6c8ebf;" edge="1" parent="1" source="mrYzFHmPEr3j6c3FVl9G-168" target="mrYzFHmPEr3j6c3FVl9G-162">
          <mxGeometry relative="1" as="geometry" />
        </mxCell>
        <mxCell id="mrYzFHmPEr3j6c3FVl9G-168" value="FECHA" style="ellipse;whiteSpace=wrap;html=1;align=center;rounded=0;fillColor=#dae8fc;strokeColor=#6c8ebf;" vertex="1" parent="1">
          <mxGeometry x="1733" y="735" width="70" height="30" as="geometry" />
        </mxCell>
        <mxCell id="mrYzFHmPEr3j6c3FVl9G-169" value="&lt;div style=&quot;text-align: left; font-size: 13px;&quot;&gt;&lt;span style=&quot;background-color: initial; font-size: 13px;&quot;&gt;1* EL ESTADO CORRESPONDE A PENDIENTE, SUSPENDIDA, APROBADA O RECHAZADA&lt;/span&gt;&lt;/div&gt;&lt;div style=&quot;text-align: left; font-size: 13px;&quot;&gt;&lt;span style=&quot;background-color: initial;&quot;&gt;2* EL ESTADO CORRESPONDE A PENDIENTE, PAUSADA, SOLUCIONADA, CANCELADA.&lt;/span&gt;&lt;/div&gt;&lt;div style=&quot;text-align: left; font-size: 13px;&quot;&gt;&lt;span style=&quot;background-color: initial;&quot;&gt;3* LA DIRECCIÓN, CIUDAD Y DEPARTAMENTO SE TOMAN DE LA API DE GOOGLE MAPS A&lt;/span&gt;&lt;/div&gt;&lt;div style=&quot;text-align: left; font-size: 13px;&quot;&gt;&lt;span style=&quot;background-color: initial;&quot;&gt;&amp;nbsp; &amp;nbsp; &amp;nbsp;PARTIR DE LA LATITUD Y LONGITUD&lt;/span&gt;&lt;/div&gt;" style="text;html=1;align=center;verticalAlign=middle;resizable=0;points=[];autosize=1;strokeColor=none;fillColor=none;fontSize=13;fontColor=#0000FF;" vertex="1" parent="1">
          <mxGeometry x="1206" y="1234" width="573" height="74" as="geometry" />
        </mxCell>
        <mxCell id="mrYzFHmPEr3j6c3FVl9G-171" value="1*" style="text;html=1;align=center;verticalAlign=middle;resizable=0;points=[];autosize=1;strokeColor=none;fillColor=none;fontSize=15;fontColor=#0000FF;labelBackgroundColor=#B4FF69;" vertex="1" parent="1">
          <mxGeometry x="1170" y="990" width="32" height="30" as="geometry" />
        </mxCell>
        <mxCell id="mrYzFHmPEr3j6c3FVl9G-172" value="2*" style="text;html=1;align=center;verticalAlign=middle;resizable=0;points=[];autosize=1;strokeColor=none;fillColor=none;fontSize=15;fontColor=#0000FF;labelBackgroundColor=#B4FF69;" vertex="1" parent="1">
          <mxGeometry x="1010.5" y="1155" width="32" height="30" as="geometry" />
        </mxCell>
        <mxCell id="mrYzFHmPEr3j6c3FVl9G-173" value="HASHCONTRASEÑA" style="ellipse;whiteSpace=wrap;html=1;align=center;fillColor=#d5e8d4;strokeColor=#82b366;" vertex="1" parent="1">
          <mxGeometry x="1087" y="800" width="128" height="30" as="geometry" />
        </mxCell>
        <mxCell id="mrYzFHmPEr3j6c3FVl9G-174" style="edgeStyle=none;rounded=0;orthogonalLoop=1;jettySize=auto;html=1;endArrow=none;endFill=0;" edge="1" parent="1" source="mrYzFHmPEr3j6c3FVl9G-173" target="mrYzFHmPEr3j6c3FVl9G-103">
          <mxGeometry relative="1" as="geometry">
            <mxPoint x="1401" y="720" as="sourcePoint" />
            <mxPoint x="1311" y="765" as="targetPoint" />
          </mxGeometry>
        </mxCell>
        <mxCell id="mrYzFHmPEr3j6c3FVl9G-175" value="" style="endArrow=none;html=1;rounded=0;" edge="1" parent="1" source="mrYzFHmPEr3j6c3FVl9G-178" target="mrYzFHmPEr3j6c3FVl9G-176">
          <mxGeometry width="50" height="50" relative="1" as="geometry">
            <mxPoint x="1423" y="598" as="sourcePoint" />
            <mxPoint x="1532.0798065296249" y="634.0399032648127" as="targetPoint" />
          </mxGeometry>
        </mxCell>
        <mxCell id="mrYzFHmPEr3j6c3FVl9G-176" value="&lt;div&gt;DISTANCIA&lt;/div&gt;" style="ellipse;whiteSpace=wrap;html=1;align=center;" vertex="1" parent="1">
          <mxGeometry x="1370.5" y="570" width="82" height="30" as="geometry" />
        </mxCell>
        <mxCell id="mrYzFHmPEr3j6c3FVl9G-177" value="&lt;div&gt;ACTIVADA&lt;br&gt;&lt;/div&gt;" style="ellipse;whiteSpace=wrap;html=1;align=center;" vertex="1" parent="1">
          <mxGeometry x="1466" y="573" width="76" height="30" as="geometry" />
        </mxCell>
        <mxCell id="mrYzFHmPEr3j6c3FVl9G-178" value="CONFIGURACIÓN GEO" style="ellipse;whiteSpace=wrap;html=1;align=center;fontColor=#000000;" vertex="1" parent="1">
          <mxGeometry x="1376.5" y="650" width="127" height="41" as="geometry" />
        </mxCell>
        <mxCell id="mrYzFHmPEr3j6c3FVl9G-179" value="" style="endArrow=none;html=1;rounded=0;" edge="1" parent="1" source="mrYzFHmPEr3j6c3FVl9G-178" target="mrYzFHmPEr3j6c3FVl9G-177">
          <mxGeometry width="50" height="50" relative="1" as="geometry">
            <mxPoint x="1582" y="553" as="sourcePoint" />
            <mxPoint x="1703" y="528" as="targetPoint" />
          </mxGeometry>
        </mxCell>
        <mxCell id="mrYzFHmPEr3j6c3FVl9G-180" style="edgeStyle=none;rounded=0;orthogonalLoop=1;jettySize=auto;html=1;endArrow=none;endFill=0;" edge="1" parent="1" source="mrYzFHmPEr3j6c3FVl9G-178" target="mrYzFHmPEr3j6c3FVl9G-103">
          <mxGeometry relative="1" as="geometry">
            <mxPoint x="1315" y="765" as="targetPoint" />
            <mxPoint x="1359" y="667" as="sourcePoint" />
          </mxGeometry>
        </mxCell>
        <mxCell id="mrYzFHmPEr3j6c3FVl9G-181" style="edgeStyle=orthogonalEdgeStyle;rounded=0;orthogonalLoop=1;jettySize=auto;html=1;" edge="1" parent="1" source="mrYzFHmPEr3j6c3FVl9G-182" target="mrYzFHmPEr3j6c3FVl9G-135">
          <mxGeometry relative="1" as="geometry">
            <Array as="points">
              <mxPoint x="724" y="987" />
              <mxPoint x="724" y="1090" />
            </Array>
            <mxPoint x="469" y="1065" as="targetPoint" />
          </mxGeometry>
        </mxCell>
        <mxCell id="mrYzFHmPEr3j6c3FVl9G-182" value="NECESIDAD TEMPORAL" style="rounded=0;whiteSpace=wrap;html=1;fillColor=#ffe6cc;strokeColor=#d79b00;" vertex="1" parent="1">
          <mxGeometry x="590" y="961" width="100" height="50" as="geometry" />
        </mxCell>
        <mxCell id="mrYzFHmPEr3j6c3FVl9G-183" value="NECESIDAD PUNTUAL" style="rounded=0;whiteSpace=wrap;html=1;fillColor=#ffe6cc;strokeColor=#d79b00;" vertex="1" parent="1">
          <mxGeometry x="590" y="1141" width="100" height="50" as="geometry" />
        </mxCell>
        <mxCell id="mrYzFHmPEr3j6c3FVl9G-184" value="FECHA&amp;nbsp;" style="ellipse;whiteSpace=wrap;html=1;fontSize=12;fillColor=#ffe6cc;strokeColor=#d79b00;" vertex="1" parent="1">
          <mxGeometry x="611" y="1077" width="58" height="39" as="geometry" />
        </mxCell>
        <mxCell id="mrYzFHmPEr3j6c3FVl9G-185" style="rounded=0;orthogonalLoop=1;jettySize=auto;html=1;endArrow=none;endFill=0;" edge="1" parent="1" source="mrYzFHmPEr3j6c3FVl9G-184" target="mrYzFHmPEr3j6c3FVl9G-183">
          <mxGeometry relative="1" as="geometry">
            <mxPoint x="654" y="1179.5" as="sourcePoint" />
            <mxPoint x="699" y="1201.5" as="targetPoint" />
          </mxGeometry>
        </mxCell>
        <mxCell id="mrYzFHmPEr3j6c3FVl9G-186" value="FECHA INICIO" style="ellipse;whiteSpace=wrap;html=1;fontSize=12;fillColor=#ffe6cc;strokeColor=#d79b00;" vertex="1" parent="1">
          <mxGeometry x="500" y="887" width="102" height="31" as="geometry" />
        </mxCell>
        <mxCell id="mrYzFHmPEr3j6c3FVl9G-187" style="rounded=0;orthogonalLoop=1;jettySize=auto;html=1;endArrow=none;endFill=0;" edge="1" parent="1" source="mrYzFHmPEr3j6c3FVl9G-182" target="mrYzFHmPEr3j6c3FVl9G-186">
          <mxGeometry relative="1" as="geometry">
            <mxPoint x="825" y="1326.5" as="sourcePoint" />
            <mxPoint x="793" y="1329.5" as="targetPoint" />
          </mxGeometry>
        </mxCell>
        <mxCell id="mrYzFHmPEr3j6c3FVl9G-188" value="FECHA FIN" style="ellipse;whiteSpace=wrap;html=1;fontSize=12;fillColor=#ffe6cc;strokeColor=#d79b00;" vertex="1" parent="1">
          <mxGeometry x="652" y="882" width="90" height="30" as="geometry" />
        </mxCell>
        <mxCell id="mrYzFHmPEr3j6c3FVl9G-189" style="rounded=0;orthogonalLoop=1;jettySize=auto;html=1;endArrow=none;endFill=0;" edge="1" parent="1" source="mrYzFHmPEr3j6c3FVl9G-182" target="mrYzFHmPEr3j6c3FVl9G-188">
          <mxGeometry relative="1" as="geometry">
            <mxPoint x="414" y="1376" as="sourcePoint" />
            <mxPoint x="803" y="1386" as="targetPoint" />
          </mxGeometry>
        </mxCell>
        <mxCell id="mrYzFHmPEr3j6c3FVl9G-190" style="edgeStyle=orthogonalEdgeStyle;rounded=0;orthogonalLoop=1;jettySize=auto;html=1;" edge="1" parent="1" source="mrYzFHmPEr3j6c3FVl9G-183" target="mrYzFHmPEr3j6c3FVl9G-135">
          <mxGeometry relative="1" as="geometry">
            <Array as="points">
              <mxPoint x="724" y="1165" />
              <mxPoint x="724" y="1090" />
            </Array>
            <mxPoint x="469" y="1065" as="targetPoint" />
          </mxGeometry>
        </mxCell>
        <mxCell id="mrYzFHmPEr3j6c3FVl9G-191" value="UBICACIÓN" style="ellipse;whiteSpace=wrap;html=1;fontSize=12;fillColor=#ffe6cc;strokeColor=#d79b00;" vertex="1" parent="1">
          <mxGeometry x="780" y="1139" width="86" height="26" as="geometry" />
        </mxCell>
        <mxCell id="mrYzFHmPEr3j6c3FVl9G-192" style="rounded=0;orthogonalLoop=1;jettySize=auto;html=1;endArrow=none;endFill=0;" edge="1" parent="1" source="mrYzFHmPEr3j6c3FVl9G-135" target="mrYzFHmPEr3j6c3FVl9G-191">
          <mxGeometry relative="1" as="geometry">
            <mxPoint x="940.0269051584289" y="1099" as="sourcePoint" />
          </mxGeometry>
        </mxCell>
        <mxCell id="mrYzFHmPEr3j6c3FVl9G-193" value="REQUIERE" style="shape=rhombus;perimeter=rhombusPerimeter;whiteSpace=wrap;html=1;align=center;rounded=0;" vertex="1" parent="1">
          <mxGeometry x="1286" y="1185" width="90" height="50" as="geometry" />
        </mxCell>
        <mxCell id="mrYzFHmPEr3j6c3FVl9G-194" value="NOMBRE" style="ellipse;whiteSpace=wrap;html=1;align=center;fontStyle=4;fillColor=#fff2cc;strokeColor=#d6b656;" vertex="1" parent="1">
          <mxGeometry x="1725" y="1020" width="65" height="30" as="geometry" />
        </mxCell>
        <mxCell id="mrYzFHmPEr3j6c3FVl9G-195" value="DESCRIPCIÓN" style="ellipse;whiteSpace=wrap;html=1;align=center;fontStyle=0;fillColor=#f5f5f5;fontColor=#333333;strokeColor=#666666;" vertex="1" parent="1">
          <mxGeometry x="1710" y="935" width="100" height="35" as="geometry" />
        </mxCell>
        <mxCell id="mrYzFHmPEr3j6c3FVl9G-196" style="edgeStyle=none;rounded=0;orthogonalLoop=1;jettySize=auto;html=1;endArrow=none;endFill=0;" edge="1" parent="1" source="mrYzFHmPEr3j6c3FVl9G-194" target="mrYzFHmPEr3j6c3FVl9G-130">
          <mxGeometry relative="1" as="geometry">
            <mxPoint x="1709" y="1013" as="sourcePoint" />
            <mxPoint x="1668" y="1045" as="targetPoint" />
          </mxGeometry>
        </mxCell>
        <mxCell id="mrYzFHmPEr3j6c3FVl9G-197" style="edgeStyle=none;rounded=0;orthogonalLoop=1;jettySize=auto;html=1;endArrow=none;endFill=0;" edge="1" parent="1" source="mrYzFHmPEr3j6c3FVl9G-195" target="mrYzFHmPEr3j6c3FVl9G-149">
          <mxGeometry relative="1" as="geometry">
            <mxPoint x="1713" y="870" as="sourcePoint" />
            <mxPoint x="1670" y="897" as="targetPoint" />
          </mxGeometry>
        </mxCell>
        <mxCell id="mrYzFHmPEr3j6c3FVl9G-198" value="TIENE" style="shape=rhombus;double=1;perimeter=rhombusPerimeter;whiteSpace=wrap;html=1;align=center;" vertex="1" parent="1">
          <mxGeometry x="1402" y="740" width="120" height="60" as="geometry" />
        </mxCell>
        <mxCell id="mrYzFHmPEr3j6c3FVl9G-199" style="edgeStyle=orthogonalEdgeStyle;rounded=0;orthogonalLoop=1;jettySize=auto;html=1;endArrow=none;endFill=0;" edge="1" parent="1" source="mrYzFHmPEr3j6c3FVl9G-162" target="mrYzFHmPEr3j6c3FVl9G-198">
          <mxGeometry relative="1" as="geometry">
            <mxPoint x="1470" y="925" as="sourcePoint" />
            <mxPoint x="1457" y="1013" as="targetPoint" />
            <Array as="points">
              <mxPoint x="1548" y="770" />
              <mxPoint x="1548" y="770" />
            </Array>
          </mxGeometry>
        </mxCell>
        <mxCell id="mrYzFHmPEr3j6c3FVl9G-200" value="&lt;font size=&quot;3&quot;&gt;N&lt;/font&gt;" style="edgeLabel;html=1;align=center;verticalAlign=middle;resizable=0;points=[];" vertex="1" connectable="0" parent="mrYzFHmPEr3j6c3FVl9G-199">
          <mxGeometry x="-0.694" y="1" relative="1" as="geometry">
            <mxPoint x="-3" y="-1" as="offset" />
          </mxGeometry>
        </mxCell>
        <mxCell id="mrYzFHmPEr3j6c3FVl9G-201" style="edgeStyle=orthogonalEdgeStyle;rounded=0;orthogonalLoop=1;jettySize=auto;html=1;endArrow=none;endFill=0;" edge="1" parent="1" source="mrYzFHmPEr3j6c3FVl9G-198" target="mrYzFHmPEr3j6c3FVl9G-103">
          <mxGeometry relative="1" as="geometry">
            <mxPoint x="1606" y="775" as="sourcePoint" />
            <mxPoint x="1530" y="775" as="targetPoint" />
            <Array as="points" />
          </mxGeometry>
        </mxCell>
        <mxCell id="mrYzFHmPEr3j6c3FVl9G-202" value="&lt;font size=&quot;3&quot;&gt;1&lt;/font&gt;" style="edgeLabel;html=1;align=center;verticalAlign=middle;resizable=0;points=[];" vertex="1" connectable="0" parent="mrYzFHmPEr3j6c3FVl9G-201">
          <mxGeometry x="-0.694" y="1" relative="1" as="geometry">
            <mxPoint x="-62" y="-1" as="offset" />
          </mxGeometry>
        </mxCell>
        <mxCell id="mrYzFHmPEr3j6c3FVl9G-203" value="POSTULA" style="shape=rhombus;perimeter=rhombusPerimeter;whiteSpace=wrap;html=1;align=center;rounded=0;" vertex="1" parent="1">
          <mxGeometry x="1246" y="1065" width="90" height="50" as="geometry" />
        </mxCell>
        <mxCell id="mrYzFHmPEr3j6c3FVl9G-204" value="(T,E)" style="text;html=1;align=center;verticalAlign=middle;resizable=0;points=[];autosize=1;strokeColor=none;fillColor=none;rounded=0;" vertex="1" parent="1">
          <mxGeometry x="841" y="1097" width="50" height="30" as="geometry" />
        </mxCell>
        <mxCell id="mrYzFHmPEr3j6c3FVl9G-205" value="EMAIL" style="ellipse;whiteSpace=wrap;html=1;align=center;rounded=0;" vertex="1" parent="1">
          <mxGeometry x="1103" y="663" width="67" height="28" as="geometry" />
        </mxCell>
        <mxCell id="mrYzFHmPEr3j6c3FVl9G-207" style="edgeStyle=none;rounded=0;orthogonalLoop=1;jettySize=auto;html=1;endArrow=none;endFill=0;" edge="1" parent="1" source="xj2whcT8riz2rXCsA1iZ-8" target="xj2whcT8riz2rXCsA1iZ-9">
          <mxGeometry relative="1" as="geometry">
            <mxPoint x="1136.6190022903113" y="618.8827699354804" as="sourcePoint" />
            <mxPoint x="1185.342273214898" y="643.9796339288389" as="targetPoint" />
          </mxGeometry>
        </mxCell>
        <mxCell id="mrYzFHmPEr3j6c3FVl9G-209" style="edgeStyle=none;rounded=0;orthogonalLoop=1;jettySize=auto;html=1;endArrow=none;endFill=0;" edge="1" parent="1" source="xj2whcT8riz2rXCsA1iZ-7" target="xj2whcT8riz2rXCsA1iZ-9">
          <mxGeometry relative="1" as="geometry">
            <mxPoint x="1153" y="582" as="sourcePoint" />
            <mxPoint x="1200.558201151933" y="640.7888065412203" as="targetPoint" />
          </mxGeometry>
        </mxCell>
        <mxCell id="mrYzFHmPEr3j6c3FVl9G-211" style="edgeStyle=none;rounded=0;orthogonalLoop=1;jettySize=auto;html=1;endArrow=none;endFill=0;" edge="1" parent="1" source="xj2whcT8riz2rXCsA1iZ-6" target="xj2whcT8riz2rXCsA1iZ-9">
          <mxGeometry relative="1" as="geometry">
            <mxPoint x="1243.4528216556307" y="582.7554610494103" as="sourcePoint" />
            <mxPoint x="1220.7041314187577" y="640.1926533057249" as="targetPoint" />
          </mxGeometry>
        </mxCell>
        <mxCell id="mrYzFHmPEr3j6c3FVl9G-218" value="&lt;font style=&quot;font-size: 16px;&quot;&gt;N&lt;/font&gt;" style="edgeStyle=orthogonalEdgeStyle;rounded=0;orthogonalLoop=1;jettySize=auto;html=1;endArrow=none;endFill=0;" edge="1" parent="1" source="mrYzFHmPEr3j6c3FVl9G-149" target="mrYzFHmPEr3j6c3FVl9G-130">
          <mxGeometry x="0.5477" relative="1" as="geometry">
            <mxPoint x="1639" y="925" as="sourcePoint" />
            <mxPoint x="1639" y="990.0000000000002" as="targetPoint" />
            <Array as="points">
              <mxPoint x="1638" y="980" />
              <mxPoint x="1638" y="980" />
            </Array>
            <mxPoint as="offset" />
          </mxGeometry>
        </mxCell>
        <mxCell id="mrYzFHmPEr3j6c3FVl9G-219" value="LAT" style="ellipse;whiteSpace=wrap;html=1;fontSize=12;fillColor=#ffe6cc;strokeColor=#d79b00;" vertex="1" parent="1">
          <mxGeometry x="730" y="1165" width="40" height="26" as="geometry" />
        </mxCell>
        <mxCell id="mrYzFHmPEr3j6c3FVl9G-220" style="rounded=0;orthogonalLoop=1;jettySize=auto;html=1;endArrow=none;endFill=0;" edge="1" parent="1" source="mrYzFHmPEr3j6c3FVl9G-191" target="mrYzFHmPEr3j6c3FVl9G-219">
          <mxGeometry relative="1" as="geometry">
            <mxPoint x="790" y="1189" as="sourcePoint" />
          </mxGeometry>
        </mxCell>
        <mxCell id="mrYzFHmPEr3j6c3FVl9G-221" value="LONG" style="ellipse;whiteSpace=wrap;html=1;fontSize=12;fillColor=#ffe6cc;strokeColor=#d79b00;" vertex="1" parent="1">
          <mxGeometry x="750" y="1191" width="40" height="26" as="geometry" />
        </mxCell>
        <mxCell id="mrYzFHmPEr3j6c3FVl9G-222" style="rounded=0;orthogonalLoop=1;jettySize=auto;html=1;endArrow=none;endFill=0;" edge="1" parent="1" source="mrYzFHmPEr3j6c3FVl9G-191" target="mrYzFHmPEr3j6c3FVl9G-221">
          <mxGeometry relative="1" as="geometry">
            <mxPoint x="808.49752404521" y="1145.9985380987548" as="sourcePoint" />
          </mxGeometry>
        </mxCell>
        <mxCell id="tM4Frh9QvpcB4AplVU33-1" style="edgeStyle=none;rounded=0;orthogonalLoop=1;jettySize=auto;html=1;endArrow=none;endFill=0;" edge="1" parent="1" source="tM4Frh9QvpcB4AplVU33-2" target="mrYzFHmPEr3j6c3FVl9G-135">
          <mxGeometry relative="1" as="geometry">
            <mxPoint x="1094" y="1022" as="targetPoint" />
          </mxGeometry>
        </mxCell>
        <mxCell id="tM4Frh9QvpcB4AplVU33-2" value="TITULO" style="ellipse;whiteSpace=wrap;html=1;align=center;rounded=0;" vertex="1" parent="1">
          <mxGeometry x="1055" y="1100" width="57" height="35" as="geometry" />
        </mxCell>
        <mxCell id="xj2whcT8riz2rXCsA1iZ-1" value="&lt;div&gt;ACTIVADA&lt;br&gt;&lt;/div&gt;" style="ellipse;whiteSpace=wrap;html=1;align=center;fillColor=#d5e8d4;strokeColor=#82b366;" vertex="1" parent="1">
          <mxGeometry x="1466" y="573" width="76" height="30" as="geometry" />
        </mxCell>
        <mxCell id="xj2whcT8riz2rXCsA1iZ-2" value="CONFIGURACIÓN GEO" style="ellipse;whiteSpace=wrap;html=1;align=center;fillColor=#d5e8d4;strokeColor=#82b366;" vertex="1" parent="1">
          <mxGeometry x="1376.5" y="650" width="127" height="41" as="geometry" />
        </mxCell>
        <mxCell id="xj2whcT8riz2rXCsA1iZ-3" value="&lt;div&gt;DISTANCIA&lt;/div&gt;" style="ellipse;whiteSpace=wrap;html=1;align=center;fillColor=#d5e8d4;strokeColor=#82b366;" vertex="1" parent="1">
          <mxGeometry x="1370.5" y="570" width="82" height="30" as="geometry" />
        </mxCell>
        <mxCell id="xj2whcT8riz2rXCsA1iZ-4" value="FOTO CI" style="ellipse;whiteSpace=wrap;html=1;align=center;rounded=0;fillColor=#d5e8d4;strokeColor=#82b366;" vertex="1" parent="1">
          <mxGeometry x="1321" y="627" width="70" height="30" as="geometry" />
        </mxCell>
        <mxCell id="xj2whcT8riz2rXCsA1iZ-5" value="TEL" style="ellipse;shape=doubleEllipse;margin=3;whiteSpace=wrap;html=1;align=center;rounded=0;fillColor=#d5e8d4;strokeColor=#82b366;" vertex="1" parent="1">
          <mxGeometry x="1269" y="625" width="49" height="30" as="geometry" />
        </mxCell>
        <mxCell id="xj2whcT8riz2rXCsA1iZ-6" value="DIRECCION" style="ellipse;whiteSpace=wrap;html=1;align=center;rounded=0;fillColor=#d5e8d4;strokeColor=#82b366;dashed=1;" vertex="1" parent="1">
          <mxGeometry x="1063" y="609" width="88" height="33" as="geometry" />
        </mxCell>
        <mxCell id="xj2whcT8riz2rXCsA1iZ-7" value="DEPARTAMENTO" style="ellipse;whiteSpace=wrap;html=1;align=center;rounded=0;fillColor=#d5e8d4;strokeColor=#82b366;dashed=1;" vertex="1" parent="1">
          <mxGeometry x="1199" y="556" width="117" height="33" as="geometry" />
        </mxCell>
        <mxCell id="xj2whcT8riz2rXCsA1iZ-8" value="CIUDAD" style="ellipse;whiteSpace=wrap;html=1;align=center;rounded=0;fillColor=#d5e8d4;strokeColor=#82b366;dashed=1;" vertex="1" parent="1">
          <mxGeometry x="1110" y="571" width="62" height="28" as="geometry" />
        </mxCell>
        <mxCell id="xj2whcT8riz2rXCsA1iZ-10" value="EMAIL" style="ellipse;whiteSpace=wrap;html=1;align=center;rounded=0;fillColor=#d5e8d4;strokeColor=#82b366;" vertex="1" parent="1">
          <mxGeometry x="1103" y="663" width="67" height="28" as="geometry" />
        </mxCell>
        <mxCell id="xj2whcT8riz2rXCsA1iZ-11" value="APELLIDO" style="ellipse;whiteSpace=wrap;html=1;align=center;rounded=0;fillColor=#d5e8d4;strokeColor=#82b366;" vertex="1" parent="1">
          <mxGeometry x="1055" y="691" width="67" height="28" as="geometry" />
        </mxCell>
        <mxCell id="xj2whcT8riz2rXCsA1iZ-12" value="NECESITADO" style="whiteSpace=wrap;html=1;align=center;rounded=0;fillColor=#d5e8d4;strokeColor=#82b366;" vertex="1" parent="1">
          <mxGeometry x="1071" y="885" width="80" height="30" as="geometry" />
        </mxCell>
        <mxCell id="xj2whcT8riz2rXCsA1iZ-13" value="FECHA CREACION" style="ellipse;whiteSpace=wrap;html=1;align=center;rounded=0;fillColor=#ffe6cc;strokeColor=#d79b00;" vertex="1" parent="1">
          <mxGeometry x="790" y="1020" width="129" height="35" as="geometry" />
        </mxCell>
        <mxCell id="xj2whcT8riz2rXCsA1iZ-14" value="NECESIDAD" style="whiteSpace=wrap;html=1;align=center;rounded=0;fillColor=#ffe6cc;strokeColor=#d79b00;" vertex="1" parent="1">
          <mxGeometry x="891" y="1075" width="100" height="30" as="geometry" />
        </mxCell>
        <mxCell id="xj2whcT8riz2rXCsA1iZ-15" value="DESCRIPCIÓN" style="ellipse;whiteSpace=wrap;html=1;align=center;rounded=0;fillColor=#ffe6cc;strokeColor=#d79b00;" vertex="1" parent="1">
          <mxGeometry x="961" y="1035" width="97" height="31" as="geometry" />
        </mxCell>
        <mxCell id="xj2whcT8riz2rXCsA1iZ-16" value="TITULO" style="ellipse;whiteSpace=wrap;html=1;align=center;rounded=0;fillColor=#ffe6cc;strokeColor=#d79b00;" vertex="1" parent="1">
          <mxGeometry x="1055" y="1100" width="57" height="35" as="geometry" />
        </mxCell>
        <mxCell id="xj2whcT8riz2rXCsA1iZ-17" value="ID" style="ellipse;whiteSpace=wrap;html=1;align=center;fontStyle=4;rounded=0;fillColor=#ffe6cc;strokeColor=#d79b00;" vertex="1" parent="1">
          <mxGeometry x="1010.5" y="1119" width="39" height="30" as="geometry" />
        </mxCell>
        <mxCell id="xj2whcT8riz2rXCsA1iZ-9" value="LONGITUD Y LATITUD" style="ellipse;whiteSpace=wrap;html=1;align=center;rounded=0;fillColor=#d5e8d4;strokeColor=#82b366;" vertex="1" parent="1">
          <mxGeometry x="1167" y="623" width="97" height="43" as="geometry" />
        </mxCell>
        <mxCell id="BSVj33CEzKhvQ5EVX773-2" value="3*" style="text;html=1;align=center;verticalAlign=middle;resizable=0;points=[];autosize=1;strokeColor=none;fillColor=none;fontSize=15;fontColor=#0000FF;labelBackgroundColor=#B4FF69;" vertex="1" parent="1">
          <mxGeometry x="1063" y="573" width="32" height="30" as="geometry" />
        </mxCell>
      </root>
    </mxGraphModel>
  </diagram>
</mxfile>
